<?xml version="1.0" standalone="no"?><!DOCTYPE svg PUBLIC "-//W3C//DTD SVG 1.1//EN"
  "http://www.w3.org/Graphics/SVG/1.1/DTD/svg11.dtd">
<svg t="0" class="icon" viewBox="0 0 1024 1024" version="1.1" xmlns="http://www.w3.org/2000/svg"
  xmlns:xlink="http://www.w3.org/1999/xlink" width="1024" height="1024">
  <defs>
    <filter id="icon_shadow" x="-20%" y="-20%" width="140%" height="140%">
      <feGaussianBlur in="SourceAlpha" stdDeviation="20"/>
      <feOffset dx="0" dy="15" result="offsetblur"/>
      <feComponentTransfer>
        <feFuncA type="linear" slope="0.3"/>
      </feComponentTransfer>
      <feMerge>
        <feMergeNode/>
        <feMergeNode in="SourceGraphic"/>
      </feMerge>
    </filter>
  </defs>
  <g transform="translate(102.4000 102.4000) scale(0.8)" filter="url(#icon_shadow)">
    <!-- path start -->
    <g transform="translate(0.000000,1024.000000) scale(0.100000,-0.100000)"
fill="#111111" stroke="none">
<path d="M3410 8584 c-1088 -81 -1999 -781 -2366 -1819 -41 -118 -43 -120 -71
-117 -281 31 -426 -11 -558 -161 -298 -339 -60 -877 388 -877 88 0 87 3 87
-194 0 -425 72 -803 221 -1167 318 -778 994 -1415 1744 -1645 315 -97 394
-106 1015 -113 535 -6 535 -6 1710 -660 1375 -765 1250 -701 1363 -701 100 0
142 16 202 75 74 75 69 23 75 783 5 727 3 701 51 702 25 0 233 68 344 112 743
294 1358 991 1565 1773 71 269 90 417 99 775 6 265 6 265 106 262 170 -5 275
36 391 152 114 113 154 211 154 372 0 194 -85 348 -252 455 -108 70 -312 93
-438 49 -54 -18 -80 -14 -80 13 0 5 -19 62 -41 126 -313 877 -1061 1546 -1951
1745 -280 63 -172 60 -2023 61 -929 1 -1710 0 -1735 -1z m3166 -745 c1057
-102 1879 -936 1985 -2012 17 -171 6 -570 -19 -712 -119 -668 -409 -1105 -972
-1460 -198 -125 -707 -365 -775 -365 -59 0 -143 -57 -187 -128 -23 -37 -23
-38 -28 -536 -3 -331 -8 -501 -15 -503 -12 -4 -8 -6 -685 395 -837 495 -1003
594 -1145 681 -140 86 -140 86 -725 92 -653 6 -674 8 -927 85 -685 207 -1206
753 -1384 1451 -56 220 -61 271 -66 659 -6 454 10 587 109 879 255 750 894
1318 1643 1459 44 8 89 17 100 19 47 10 2986 7 3091 -4z"/>
<path d="M3233 6540 c-196 -51 -351 -225 -382 -427 -16 -107 -14 -619 4 -717
53 -297 360 -489 660 -411 169 44 326 201 370 370 22 87 22 715 -1 815 -61
268 -370 444 -651 370z"/>
<path d="M6454 6545 c-169 -37 -339 -197 -386 -363 -25 -92 -27 -732 -3 -827
44 -169 201 -326 370 -370 189 -49 385 5 518 144 144 149 149 173 145 663 -3
383 -3 383 -42 462 -111 229 -353 345 -602 291z"/>
</g>
    <!-- path end -->
  </g>
</svg>
