<?xml version="1.0" standalone="no"?><!DOCTYPE svg PUBLIC "-//W3C//DTD SVG 1.1//EN"
  "http://www.w3.org/Graphics/SVG/1.1/DTD/svg11.dtd">
<svg t="0" class="icon" viewBox="0 0 1024 1024" version="1.1" xmlns="http://www.w3.org/2000/svg"
  xmlns:xlink="http://www.w3.org/1999/xlink" width="1024" height="1024">
  <defs>
    <filter id="icon_shadow" x="-20%" y="-20%" width="140%" height="140%">
      <feGaussianBlur in="SourceAlpha" stdDeviation="20"/>
      <feOffset dx="0" dy="15" result="offsetblur"/>
      <feComponentTransfer>
        <feFuncA type="linear" slope="0.3"/>
      </feComponentTransfer>
      <feMerge>
        <feMergeNode/>
        <feMergeNode in="SourceGraphic"/>
      </feMerge>
    </filter>
  </defs>
  <g transform="translate(102.4000 102.4000) scale(0.8)" filter="url(#icon_shadow)">
    <!-- path start -->
    <g transform="translate(0.000000,1024.000000) scale(0.100000,-0.100000)"
fill="#111111" stroke="none">
<path d="M3410 8594 c-1120 -83 -2016 -787 -2397 -1884 -16 -49 -21 -55 -43
-52 -176 24 -302 11 -411 -44 -310 -155 -383 -592 -142 -846 105 -109 207
-156 363 -167 95 -6 95 -6 101 -236 8 -275 23 -418 63 -605 236 -1101 1049
-1963 2091 -2215 222 -54 265 -57 835 -64 535 -6 535 -6 1731 -672 658 -366
1211 -671 1229 -678 101 -35 250 -6 319 61 80 79 75 30 81 792 4 590 7 680 20
686 8 4 65 22 125 40 1020 296 1770 1196 1896 2275 6 55 14 217 18 360 6 259
6 259 101 257 316 -9 550 218 550 534 0 244 -144 445 -369 514 -86 27 -253 27
-331 0 -55 -19 -70 -18 -70 2 0 21 -99 285 -141 374 -356 764 -1052 1327
-1861 1508 -280 63 -172 60 -2023 61 -929 1 -1710 0 -1735 -1z m3166 -765
c939 -91 1709 -774 1928 -1709 47 -202 60 -358 53 -653 -19 -820 -340 -1397
-1009 -1813 -213 -133 -649 -337 -756 -355 -98 -15 -176 -79 -208 -166 -10
-30 -13 -144 -14 -522 0 -428 -2 -482 -15 -477 -16 6 -145 81 -650 381 -159
94 -452 268 -650 385 -198 117 -427 254 -510 304 -150 91 -150 91 -735 97
-545 5 -593 7 -697 27 -428 83 -762 260 -1068 567 -319 318 -498 669 -581
1137 -25 144 -32 774 -10 929 134 921 848 1687 1731 1853 44 8 89 17 100 19
47 10 2986 7 3091 -4z"/>
<path d="M3232 6550 c-206 -54 -359 -225 -391 -437 -16 -107 -14 -619 4 -717
99 -556 907 -587 1050 -41 22 87 22 715 -1 815 -63 278 -373 456 -662 380z"/>
<path d="M6453 6555 c-181 -39 -345 -194 -395 -374 -25 -91 -27 -731 -3 -826
123 -470 786 -539 1004 -105 49 100 52 135 49 547 -3 378 -3 378 -46 466 -113
232 -354 347 -609 292z"/>
</g>
    <!-- path end -->
  </g>
</svg>
