<svg xmlns="http://www.w3.org/2000/svg" xmlns:xlink="http://www.w3.org/1999/xlink" version="1.1"
     viewBox="0 0 1024 1024"
     width="1024" height="1024">
    <circle cx="512" cy="512" r="512" fill="#111111"/>
    <path
        d="M682.2314 889.73a24.7235 25.1463 0 01-11.8211-3.0495L446.3013 762.2487H371.9587c-138.2158 0-254.9766-123.9818-254.9766-270.6853V444.7952A253.1334 257.4623 0 01371.9587 189.8325H648.4394A253.1334 257.4623 0 01903.416 444.7952v46.6681A248.2182 252.463 0 01710.7233 744.1706V864.7337A24.5761 24.9964 0 01686.1472 889.73ZM362.7471 260.1754A203.9813 207.4696 0 00187.019 448.6416v42.4712c0 117.6577 93.0837 197.5415 192.2569 194.887H459.91a24.7972 25.2213 0 0110.7097 5.0818l179.2077 106.178V714.0868a24.5761 24.9964 0 0124.3584-28.2681c110.4824-42.5173 153.1095-98.2608 161.8089-188.5122V455.7201A203.9813 207.4696 0 00637.6483 260.1754H371.4465Z"
        fill="#FFFFFF"/>
    <rect x="60" y="370"
          width="100" height="100"
          rx="50" ry="50"
          fill="#FFFFFF">
    </rect>
    <rect x="865" y="370"
          width="100" height="100"
          rx="50" ry="50"
          fill="#FFFFFF">
    </rect>
    <rect x="300" y="380"
          width="100" height="150"
          rx="50" ry="50"
          fill="#FFFFFF">
        <animate attributeName="height"
                 values="150;70;70;150;150;70;70;150;150"
                 keyTimes="0;0.02;0.04;0.06;0.20;0.22;0.24;0.26;1"
                 dur="6s"
                 repeatCount="indefinite"/>
        <animate attributeName="y"
                 values="380;420;420;380;380;420;420;380;380"
                 keyTimes="0;0.02;0.04;0.06;0.20;0.22;0.24;0.26;1"
                 dur="6s"
                 repeatCount="indefinite"/>
    </rect>
    <rect x="600" y="380"
          width="100" height="150"
          rx="50" ry="50"
          fill="#FFFFFF">
        <animate attributeName="height"
                 values="150;70;70;150;150;70;70;150;150"
                 keyTimes="0;0.02;0.04;0.06;0.20;0.22;0.24;0.26;1"
                 dur="6s"
                 repeatCount="indefinite"/>
        <animate attributeName="y"
                 values="380;420;420;380;380;420;420;380;380"
                 keyTimes="0;0.02;0.04;0.06;0.20;0.22;0.24;0.26;1"
                 dur="6s"
                 repeatCount="indefinite"/>
    </rect>
</svg>
