<?xml version="1.0" standalone="no"?><!DOCTYPE svg PUBLIC "-//W3C//DTD SVG 1.1//EN" "http://www.w3.org/Graphics/SVG/1.1/DTD/svg11.dtd"><svg t="1733818114459" class="icon" viewBox="0 0 1024 1024" version="1.1" xmlns="http://www.w3.org/2000/svg" p-id="1341" xmlns:xlink="http://www.w3.org/1999/xlink" width="1024" height="1024"><path d="M512 116.4921875C293.6796875 116.4921875 116.4921875 293.6796875 116.4921875 512s177.1875 395.5078125 395.5078125 395.5078125 395.5078125-177.1875 395.5078125-395.5078125S730.3203125 116.4921875 512 116.4921875z m48.25195313 598.0078125c0 21.35742188-17.40234375 38.75976563-38.75976563 38.75976563h-19.37988281c-21.35742188 0-38.75976563-17.40234375-38.75976563-38.75976563V483.12792969c0-21.35742188 17.40234375-38.75976563 38.75976563-38.75976563h19.37988281c21.35742188 0 38.75976563 17.40234375 38.75976563 38.75976563v231.37207031zM512 386.62402344c-26.49902344 0-48.25195313-21.75292969-48.25195313-48.25195313 0-26.49902344 21.75292969-48.25195313 48.25195313-48.25195312s48.25195313 21.75292969 48.25195313 48.25195312c0 26.49902344-21.75292969 48.25195313-48.25195313 48.25195313z" fill="#111111" p-id="1342"></path></svg>