<?xml version="1.0" standalone="no"?><!DOCTYPE svg PUBLIC "-//W3C//DTD SVG 1.1//EN" "http://www.w3.org/Graphics/SVG/1.1/DTD/svg11.dtd"><svg t="1734340528061" class="icon" viewBox="0 0 1024 1024" version="1.1" xmlns="http://www.w3.org/2000/svg" p-id="1461" xmlns:xlink="http://www.w3.org/1999/xlink" width="1024" height="1024"><path d="M752.9480191 789.91763149c-30.89077197 46.33615761-64.8706205 89.58323794-114.29585537 92.67231519s-64.8706205-30.89077197-120.47400918-30.89077197-74.13785231 27.80169471-120.47400992 30.89077197c-49.42523488 3.08907727-86.49416066-49.42523488-117.38493263-92.67231519-61.78154323-92.67231521-111.2067781-262.57155926-46.33615761-373.77833737 30.89077197-55.60338941 89.58323794-89.58323794 151.36478189-92.67231521 46.33615761 0 92.67231521 30.89077197 120.47400917 30.89077125s83.4050834-40.15800307 142.09755009-33.9798485c52.51431214 3.08907727 105.02862356 27.80169471 135.91939553 74.1378523-49.42523488 30.89077197-80.31600612 83.4050834-80.31600685 142.09754934 0 64.8706205 40.15800307 123.56308646 98.85046975 148.27570463-9.26723182 37.06892579-27.80169471 74.13785231-49.42523487 105.02862356M542.89077197 196.81481519c27.80169471-30.89077197 67.95969776-52.51431214 108.11770084-55.60338941 3.08907727 43.24708033-9.26723182 86.49416066-37.06892651 117.38493264-24.71261743 33.97984853-67.95969776 52.51431214-108.11770085 52.51431142-6.17815455-40.15800307 9.26723182-83.4050834 37.06892652-114.29585466z" fill="#111111" p-id="1462"></path></svg>
