<?xml version="1.0" standalone="no"?><!DOCTYPE svg PUBLIC "-//W3C//DTD SVG 1.1//EN" "http://www.w3.org/Graphics/SVG/1.1/DTD/svg11.dtd"><svg t="1760429347680" class="icon" viewBox="0 0 1024 1024" version="1.1" xmlns="http://www.w3.org/2000/svg" p-id="2170" xmlns:xlink="http://www.w3.org/1999/xlink" width="200" height="200"><path d="M164.38571167 164.38571167m86.90357209 0l521.42143249 0q86.90357209 0 86.90357208 86.90357209l0 521.42143249q0 86.90357209-86.90357208 86.90357208l-521.42143249 0q-86.90357209 0-86.90357209-86.90357208l0-521.42143249q0-86.90357209 86.90357209-86.90357209Z" fill="#5175F4" p-id="2171"></path><path d="M709.40146399 339.99610496l-25.41929484-25.37584305a41.36610031 41.36610031 0 0 0-58.59473348 0L566.42336203 373.60606145l-28.48264577-28.50437163-56.37869238 56.40041828 23.48569036 23.46396445L344.05884695 585.86803627a59.31168795 59.31168795 0 0 0-17.22863317 38.60691189l-9.34213399 9.342134a51.40346289 51.40346289 0 0 0 36.30396723 87.68570423c13.70903849 0 26.61421896-5.34456968 36.28224135-15.05604385l9.38558578-9.36385989a58.70336295 58.70336295 0 0 0 38.6286378-17.25035906l160.94541549-160.90196372 23.52914214 23.46396446 56.3569665-56.37869238-28.52609753-28.46091986 59.00752543-58.96407366a41.49645567 41.49645567 0 0 0 0-58.61645937zM412.06089211 653.82662964a22.35594392 22.35594392 0 0 1-25.68000557 4.32345271L364.04666852 680.44084859a14.46944476 14.46944476 0 0 1-20.57442068 0 14.55634833 14.55634833 0 0 1 0-20.57442069l22.29076624-22.26904034a22.59492874 22.59492874 0 0 1 4.32345271-25.68000556l160.98886729-160.9236896 41.90924762 41.88752174-160.94541548 160.9454155z" fill="#EEF2FD" p-id="2172"></path></svg>