<?xml version="1.0" standalone="no"?><!DOCTYPE svg PUBLIC "-//W3C//DTD SVG 1.1//EN" "http://www.w3.org/Graphics/SVG/1.1/DTD/svg11.dtd"><svg t="1732439071031" class="icon" viewBox="0 0 1024 1024" version="1.1" xmlns="http://www.w3.org/2000/svg" p-id="1321" xmlns:xlink="http://www.w3.org/1999/xlink" width="1024" height="1024"><path d="M604.28515625 643.8359375c0 21.83532715 17.71545411 39.55078125 39.55078125 39.55078125s39.55078125-17.71545411 39.55078125-39.55078125-17.71545411-39.55078125-39.55078125-39.55078125h-39.55078125v39.55078125z m79.1015625-263.671875c0-21.83532715-17.71545411-39.55078125-39.55078125-39.55078125s-39.55078125 17.71545411-39.55078125 39.55078125v39.55078125h39.55078125c21.83532715 0 39.55078125-17.71545411 39.55078125-39.55078125z" fill="#111111" p-id="1322"></path><path d="M854.7734375 142.859375H169.2265625c-14.58435059 0-26.3671875 11.78283692-26.3671875 26.3671875v685.546875c0 14.58435059 11.78283692 26.3671875 26.3671875 26.3671875h685.546875c14.58435059 0 26.3671875-11.78283692 26.3671875-26.3671875V169.2265625c0-14.58435059-11.78283692-26.3671875-26.3671875-26.3671875zM643.8359375 551.55078125c51.00402833 0 92.28515625 41.28112793 92.28515625 92.28515625s-41.28112793 92.28515625-92.28515625 92.28515625-92.28515625-41.28112793-92.28515625-92.28515625v-39.55078125h-79.1015625v39.55078125c0 51.00402833-41.28112793 92.28515625-92.28515625 92.28515625s-92.28515625-41.28112793-92.28515625-92.28515625 41.28112793-92.28515625 92.28515625-92.28515625h39.55078125v-79.1015625h-39.55078125c-51.00402833 0-92.28515625-41.28112793-92.28515625-92.28515625s41.28112793-92.28515625 92.28515625-92.28515625 92.28515625 41.28112793 92.28515625 92.28515625v39.55078125h79.1015625v-39.55078125c0-51.00402833 41.28112793-92.28515625 92.28515625-92.28515625s92.28515625 41.28112793 92.28515625 92.28515625-41.28112793 92.28515625-92.28515625 92.28515625h-39.55078125v79.1015625h39.55078125z" fill="#111111" p-id="1323"></path><path d="M472.44921875 472.44921875h79.1015625v79.1015625h-79.1015625zM380.1640625 340.61328125c-21.83532715 0-39.55078125 17.71545411-39.55078125 39.55078125s17.71545411 39.55078125 39.55078125 39.55078125h39.55078125v-39.55078125c0-21.83532715-17.71545411-39.55078125-39.55078125-39.55078125z m-39.55078125 303.22265625c0 21.83532715 17.71545411 39.55078125 39.55078125 39.55078125s39.55078125-17.71545411 39.55078125-39.55078125v-39.55078125h-39.55078125c-21.83532715 0-39.55078125 17.71545411-39.55078125 39.55078125z" fill="#111111" p-id="1324"></path></svg>