<?xml version="1.0" standalone="no"?><!DOCTYPE svg PUBLIC "-//W3C//DTD SVG 1.1//EN" "http://www.w3.org/Graphics/SVG/1.1/DTD/svg11.dtd"><svg t="1732438669812" class="icon" viewBox="0 0 1025 1024" version="1.1" xmlns="http://www.w3.org/2000/svg" p-id="1068" xmlns:xlink="http://www.w3.org/1999/xlink" width="1025" height="1024"><path d="M512.2933111 644.1218898c-0.80383292 0-1.60766585 0-2.41149876 0-190.79083011 0-345.10502576-46.33988165-345.1484762-81.92578233l-0.34760343-139.7583022c0-0.21725214 0.08690085-0.41277907 0.08690087-0.58658078 31.41465958 14.90349686 68.3257983 21.76866452 90.39861581 25.87472997 68.58650089 12.75270067 159.18064361 19.79167004 255.01056295 19.79167004l2.41149876 0c96.43822533-0.10862606 187.55377321-7.32139715 256.639954-20.29134997 22.09454273-4.14951589 58.87533018-11.05813397 90.31171496-25.87472996 0 0.06517566 0 0.19552692 0 0.19552692l0.36932864 139.75830222C859.65775913 597.04335089 704.21385234 643.86118723 512.2933111 644.1218898zM512.2933111 425.43588413c-0.80383292 0-1.60766585 0-2.41149876 0-190.79083011 0-345.10502576-42.27726662-345.1484762-77.86316729l-0.34760343-118.05481334C164.32055639 193.80165155 319.85136404 164.62468903 511.77190597 164.38571167c0.84728335 0 1.65111627 0 2.49839961 0 190.72565446 0 344.93122404 28.67728259 344.97467448 64.26318327l0.36932863 118.05481335C859.65775913 382.41996025 704.21385234 425.17518156 512.2933111 425.43588413zM509.86008713 686.2253547l2.41149876 0c96.43822533-0.13035127 187.57549842-11.38401218 256.639954-24.35396499 22.09454273-4.14951589 58.87533018-11.05813397 90.33344017-25.89645518l0.34760341 158.50716197c0.04345043 35.73797717-155.40045636 64.89321447-347.32099758 65.13219183-0.82555813 0-1.60766585 0-2.45494921 0-190.74737968 0-345.06157534-28.67728259-345.10502576-64.24145805L164.38573203 636.45288923c31.41465958 14.92522207 68.34752351 21.79038973 90.46379147 25.89645519C323.43602436 675.1237703 414.00844258 686.2253547 509.86008713 686.2253547z" fill="#111111" p-id="1069"></path></svg>