<?xml version="1.0" standalone="no"?><!DOCTYPE svg PUBLIC "-//W3C//DTD SVG 1.1//EN" "http://www.w3.org/Graphics/SVG/1.1/DTD/svg11.dtd"><svg t="1736041720093" class="icon" viewBox="0 0 1024 1024" version="1.1" xmlns="http://www.w3.org/2000/svg" p-id="1897" xmlns:xlink="http://www.w3.org/1999/xlink" width="1024" height="1024"><path d="M512 141.21142578c204.76799011 0 370.78857422 166.02058411 370.78857422 370.78857422s-166.02058411 370.78857422-370.78857422 370.78857422S141.21142578 716.76799011 141.21142578 512 307.23200989 141.21142578 512 141.21142578z m123.99787879 519.13490319H388.3420105v37.07885743h247.65586829v-37.07885743zM697.39428711 363.62277245H326.60571289v272.00431777h370.78857422V363.62277245z m-37.07885742 37.07885742v197.84660292H363.68457031V400.70162987h296.63085938z m-207.02362085 21.62933303H416.21295142v154.98962403h37.07885742V422.39276147z m105.05676293 0h-80.33752417v154.98962403h37.07885742v-62.35427834l43.25866675 0.03089929a46.34857177 46.34857177 0 0 0 0-92.69714356z m-43.25866675 37.01705956l43.25866675 0.03089928a9.26971435 9.26971435 0 1 1 0 18.53942872h-43.25866675v-18.53942872z" fill="#111111" fill-opacity=".85" p-id="1898"></path></svg>
