<?xml version="1.0" standalone="no"?><!DOCTYPE svg PUBLIC "-//W3C//DTD SVG 1.1//EN" "http://www.w3.org/Graphics/SVG/1.1/DTD/svg11.dtd"><svg t="1734340537677" class="icon" viewBox="0 0 1024 1024" version="1.1" xmlns="http://www.w3.org/2000/svg" p-id="1783" xmlns:xlink="http://www.w3.org/1999/xlink" width="1024" height="1024"><path d="M845.28125 787.25c-4.3125-12.84375-41.8125-28.96875-53.625-54.75s-2.15625-39.65625-20.34375-52.59375c-2.4375-1.78125-5.15625-2.8125-8.0625-3.46875 6.375-16.875 6.5625-39.9375 5.71875-70.3125-2.15625-79.40625-36.84375-127.03125-55.5-150.28125-22.3125-27.84375-30-38.34375-47.15625-65.34375-16.59375-26.0625-34.21875-58.125-34.78125-92.625-0.75-40.78125-2.15625-87.65625-21.46875-123s-67.3125-70.21875-135.1875-51.46875c-72.5625 20.0625-74.34375 81.09375-77.53125 126.1875s17.34375 77.15625 0.09375 134.15625-47.25 78.1875-61.6875 106.78125c-35.71875 70.78125-43.3125 77.0625-58.96875 113.53125-17.34375 40.21875-4.3125 64.03125-4.3125 64.03125l0.75 1.96875c-6.1875 11.4375-9.46875 22.875-16.78125 25.96875-14.625 6.1875-49.3125-3.1875-61.125 8.625s5.71875 83.34375-2.15625 96.5625c-7.875 13.21875-15 12.84375-15 34.3125s23.625 19.3125 115.875 50.4375 109.40625 22.5 130.875-4.3125c3.5625-4.40625 5.8125-9.28125 7.125-14.4375 28.21875-2.53125 56.71875-4.78125 73.3125-4.875 36.84375-0.1875 88.40625 11.4375 112.40625 17.34375 3.46875 9.28125 8.53125 16.78125 15.28125 20.25 19.3125 9.65625 64.40625 8.625 91.21875-17.15625s94.40625-58.96875 103.03125-67.59375 22.21875-15.09375 18-27.9375z m-386.15625-495c-1.03125-12.1875-7.6875-21.46875-14.90625-20.90625s-12.28125 10.96875-11.25 23.0625c0.5625 6.75 2.90625 12.65625 6.09375 16.40625-1.125 1.03125-2.15625 1.96875-3.1875 2.90625-5.25-6.84375-9.65625-17.8125-10.78125-31.21875-1.96875-23.15625 7.03125-41.34375 16.40625-42.09375h0.65625v-6.9375 6.9375c9.09375 0 20.625 15.9375 22.5 38.8125 0.375 4.875 0.28125 9.46875-0.09375 13.78125-1.78125 0.75-3.5625 1.59375-5.25 2.4375-0.09375-0.9375-0.09375-2.0625-0.1875-3.1875zM445.8125 304.8125c0 0.09375 0 0.09375 0 0 0 0.09375 0 0.09375 0 0z m-2.34375 2.0625l-0.09375 0.09375 0.09375-0.09375z m-2.25 2.0625l-0.09375 0.09375c0-0.09375 0-0.09375 0.09375-0.09375z m-9 7.96875c0.5625-0.46875 1.03125-0.9375 1.59375-1.40625-0.5625 0.5625-1.03125 1.03125-1.59375 1.40625z m1.875-1.59375c0.5625-0.46875 1.125-1.03125 1.6875-1.5-0.5625 0.5625-1.125 1.03125-1.6875 1.5z m35.625-24.09375z m-20.25 46.21875c2.34375-1.96875 4.59375-4.03125 6.75-6 10.03125-9.1875 16.78125-14.8125 25.78125-15.1875 1.03125-0.09375 2.0625-0.09375 3.09375-0.09375 15.28125 0 30.75 5.4375 51.75 18.375 1.875 1.125 3.65625 2.15625 5.34375 3.1875-4.6875 4.21875-10.3125 9.09375-16.78125 14.34375-14.90625 12.09375-25.96875 19.59375-31.6875 22.78125-4.21875-1.875-11.90625-6.09375-23.34375-13.96875-12.46875-8.625-22.03125-16.6875-24.46875-19.125 0.9375-1.5 2.15625-3.09375 3.5625-4.3125z m90-32.4375c0.46875 0.28125 1.03125 0.5625 1.5 0.84375-0.46875-0.28125-0.9375-0.5625-1.5-0.84375z m1.59375-35.625c-9-0.46875-17.53125 9.1875-19.03125 21.5625-0.28125 1.96875-0.28125 3.9375-0.09375 5.71875-3.46875-1.40625-6.9375-2.53125-10.3125-3.5625-0.375-4.125-0.375-8.4375 0.1875-12.75 1.3125-11.25 5.71875-21.75 12.1875-29.34375 5.8125-6.75 12.5625-10.5 19.03125-10.5h0.9375c4.875 0.28125 9.28125 2.625 12.9375 7.03125 6.65625 7.875 9.65625 20.71875 8.0625 34.3125-1.3125 11.25-5.71875 21.75-12.1875 29.34375-0.28125 0.28125-0.5625 0.65625-0.84375 0.9375l-0.84375-0.5625c-1.3125-0.84375-2.625-1.59375-3.9375-2.34375 3.9375-3.9375 6.75-9.84375 7.59375-16.59375 1.3125-12.375-4.6875-22.78125-13.6875-23.25z m3.75 38.625c-0.5625-0.28125-1.125-0.65625-1.6875-0.9375 0.65625 0.28125 1.21875 0.5625 1.6875 0.9375z m-12.9375-6.9375c-0.375-0.1875-0.84375-0.375-1.21875-0.5625 0.375 0.1875 0.75 0.375 1.21875 0.5625z m-3.65625-1.6875c-0.375-0.1875-0.65625-0.28125-1.03125-0.46875 0.375 0.1875 0.75 0.375 1.03125 0.46875z m-22.125-7.59375c0.09375 0 0.1875 0.09375 0.375 0.09375-0.1875-0.09375-0.28125-0.09375-0.375-0.09375z m48.28125 21.84375c-0.84375-0.46875-1.6875-1.03125-2.53125-1.5 0.84375 0.5625 1.6875 1.03125 2.53125 1.5z m6.375 3.65625c-0.46875-0.28125-1.03125-0.5625-1.59375-0.84375 0.5625 0.28125 1.03125 0.5625 1.59375 0.84375z m-1.78125-0.9375c-0.65625-0.375-1.40625-0.84375-2.15625-1.21875 0.75 0.375 1.5 0.84375 2.15625 1.21875z m-2.25-1.3125c-0.75-0.46875-1.5-0.9375-2.34375-1.40625 0.84375 0.46875 1.59375 0.9375 2.34375 1.40625z m30.65625 477.1875c-16.875 15.375-29.8125 21.75-39.28125 27.75-17.71875 11.25-46.3125 18.09375-76.03125 13.59375-18.84375-2.8125-35.71875-10.6875-50.53125-19.59375-3.5625-6.9375-7.125-12.5625-9.75-15.9375-6.5625-8.71875-51.1875-71.8125-79.125-111.1875-1.5-8.0625-2.25-15.9375-2.15625-23.4375 0.5625-46.125 13.40625-100.03125 23.90625-112.6875 3.1875-3.84375 26.625-70.59375 32.15625-84.75 10.21875-25.78125 25.96875-56.0625 34.21875-73.78125 5.625-14.625 6.46875-24.84375 5.71875-31.78125 9.28125 9.65625 52.78125 42.46875 68.34375 42.46875h0.28125c12.9375-0.28125 62.53125-40.6875 79.5-59.25 1.59375 6.75 9.9375 20.15625 15.28125 33.09375 15.5625 37.6875 33.65625 108.1875 62.625 147.28125 1.96875 2.71875 6.84375 11.90625 7.78125 15.46875 11.25 40.40625 9 70.96875 2.0625 130.96875-3.09375-1.03125-6.65625-1.875-11.34375-2.25-19.78125-1.59375-26.8125 6.46875-26.8125 6.46875s-1.125 44.4375-3.28125 85.59375c-1.6875 1.875-3.46875 3.75-5.25 5.625-10.125 10.125-19.5 18.84375-28.3125 26.34375z" fill="#111111" p-id="1784"></path></svg>
