<?xml version="1.0" standalone="no"?><!DOCTYPE svg PUBLIC "-//W3C//DTD SVG 1.1//EN" "http://www.w3.org/Graphics/SVG/1.1/DTD/svg11.dtd"><svg t="1736037578407" class="icon" viewBox="0 0 1024 1024" version="1.1" xmlns="http://www.w3.org/2000/svg" p-id="1867" xmlns:xlink="http://www.w3.org/1999/xlink" width="1024" height="1024"><path d="M702.31132812 416.63427734V321.69833984c0-111.97617187-80.69501953-189.871875-189.871875-189.871875s-189.871875 77.89570313-189.871875 189.871875v94.9359375h-58.68632812c-28.48095703 0-55.2375 32.596875-55.2375 56.96191407v369.02636718c0 29.22275391 31.50351562 48.69140625 55.2375 48.69140625h497.11640625c28.48095703 0 55.2375-24.36503906 55.2375-48.69140625v-369.02636718c0-29.22275391-26.75566406-56.96191406-55.2375-56.96191407h-58.68632812zM550.41347656 777.39101563h-75.94892578V682.45419922c-29.22275391-10.84658203-37.97490234-43.64824219-37.97490234-70.77480469 0-37.97402344 35.04462891-62.13427734 75.94892578-62.13427734s75.94892578 24.16025391 75.94892578 62.13427734c0 27.1265625-14.59335938 59.92910156-37.97490234 70.77480469v94.93681641z m75.94892578-360.75673829H398.515625V321.69833984c0-59.00097656 47.46796875-113.92294922 113.92382813-113.92294921s113.92294922 54.92197266 113.92294921 113.92294921v94.9359375z" fill="#111111" p-id="1868"></path></svg>
