<?xml version="1.0" standalone="no"?><!DOCTYPE svg PUBLIC "-//W3C//DTD SVG 1.1//EN" "http://www.w3.org/Graphics/SVG/1.1/DTD/svg11.dtd"><svg t="1754976194457" class="icon" viewBox="0 0 1024 1024" version="1.1" xmlns="http://www.w3.org/2000/svg" p-id="2093" xmlns:xlink="http://www.w3.org/1999/xlink" width="200" height="200"><path d="M185.046875 343.25l91.40624973 49.21874973c-3.51562527 3.51562527-3.51562527 10.546875-3.51562446 17.57812554v193.35937446c0 10.546875 3.51562527 24.60937527 10.546875 35.15625027 7.03124973 10.546875 14.06250027 17.57812473 28.12499973 24.60937527l168.75 94.921875c3.51562527 3.51562527 7.03124973 3.51562527 10.546875 7.03124973v108.98437527c-3.51562527 0-7.03124973-3.51562527-7.03124973-3.51562527L216.6875 722.9375c-10.546875-7.03124973-21.09375-14.06250027-28.12499973-24.60937527-7.03124973-10.546875-10.546875-21.09375-10.546875-35.15624946V367.85937527c3.51562527-10.546875 3.51562527-17.57812473 7.03124973-24.60937527z m675 24.60937527v295.3125c0 10.546875-3.51562527 24.60937527-10.546875 35.15624946-7.03124973 10.546875-14.06250027 17.57812473-28.12499973 24.60937527l-263.671875 147.65625c-3.51562527 0-7.03124973 3.51562527-7.03125054 3.51562527v-112.50000054c3.51562527 0 3.51562527 0 3.51562527-3.51562446l168.75-94.921875c10.546875-7.03124973 21.09375-14.06250027 28.12499973-24.60937527 7.03124973-10.546875 10.546875-21.09375 10.546875-35.15625027V410.04687527v-10.546875l94.921875-52.734375c3.51562527 7.03124973 3.51562527 14.06250027 3.51562527 21.09375zM561.21874973 160.43749973l260.15625054 144.14062554-91.40625054 49.21874973h-3.51562446l-168.75-94.921875c-10.546875-7.03124973-24.60937527-10.546875-38.67187554-10.546875-14.06250027 0-28.12499973 3.51562527-38.67187473 10.546875L315.12500027 346.76562527 227.234375 301.0625l253.125-140.62500027c10.546875-7.03124973 24.60937527-10.546875 38.67187473-10.546875 14.06250027 0 28.12499973 3.51562527 42.1875 10.546875z" fill="#2c2c2c" p-id="2094"></path><path d="M336.21875027 417.078125l168.75 91.40624973v196.87500054c-7.03124973 0-17.57812473-3.51562527-24.60937527-7.03125054l-112.49999973-63.28125c-10.546875-7.03124973-21.09375-14.06250027-28.12500054-24.60937446-7.03124973-10.546875-10.546875-21.09375-10.546875-35.15625027v-130.07812527c0-10.546875 3.51562527-17.57812473 7.03125054-28.12499973z m372.65624946 28.12499973v130.07812527c0 10.546875-3.51562527 24.60937527-10.546875 35.15625027-7.03124973 10.546875-14.06250027 17.57812473-28.12499973 24.60937446l-112.49999973 63.28125c-3.51562527 0-3.51562527 3.51562527-7.03125054 3.51562527v-186.32812473l154.68750054-80.85937554c3.51562527 3.51562527 3.51562527 7.03124973 3.51562446 10.546875z m-151.17187446-123.04687473l112.49999973 63.28125c3.51562527 3.51562527 10.546875 7.03124973 14.06250027 10.546875L533.09375 476.84374973h-3.51562527L364.34375 385.4375 476.84374973 322.15625c10.546875-7.03124973 24.60937527-10.546875 38.67187554-10.546875 17.57812473 0 31.640625 3.51562527 42.1875 10.546875z" fill="#2c2c2c" p-id="2095"></path></svg>
