<?xml version="1.0" standalone="no"?><!DOCTYPE svg PUBLIC "-//W3C//DTD SVG 1.1//EN" "http://www.w3.org/Graphics/SVG/1.1/DTD/svg11.dtd"><svg t="1732276478349" class="icon" viewBox="0 0 1024 1024" version="1.1" xmlns="http://www.w3.org/2000/svg" p-id="1993" xmlns:xlink="http://www.w3.org/1999/xlink" width="1024" height="1024"><path d="M301.10000029 162.0000002a24.99999961 24.99999961 0 0 0-25.00000049 24.99999961v143.775a24.99999961 24.99999961 0 0 0 25.00000049 25.00000048h434.44999951a24.99999961 24.99999961 0 0 0 25.00000049-25.00000048V277.6500002h30.57499951a96.00000029 96.00000029 0 1 1 0 191.97500009h-30.57499951v-40.40000068a24.99999961 24.99999961 0 0 0-25.00000049-24.99999961H301.10000029a24.99999961 24.99999961 0 0 0-25.00000049 24.99999961v40.40000068h-17.87500019a146.25 146.25 0 1 0 0 292.44999991h17.87500019v53.15000009a24.99999961 24.99999961 0 0 0 25.00000049 24.99999961h434.44999951a24.99999961 24.99999961 0 0 0 25.00000049-24.99999961v-143.775a24.99999961 24.99999961 0 0 0-25.00000049-25.00000048H301.10000029a24.99999961 24.99999961 0 0 0-25.00000049 25.00000048v53.12499961h-17.87500019a108.74999971 108.74999971 0 0 1 0-217.45000019h17.87500019v65.8749999a24.99999961 24.99999961 0 0 0 25.00000049 25.00000049h434.44999951a24.99999961 24.99999961 0 0 0 25.00000049-25.00000049v-65.8749999h30.57499951a133.49999971 133.49999971 0 0 0 0-266.99999942h-30.57499951V186.9999998a24.99999961 24.99999961 0 0 0-25.00000049-24.99999961H301.10000029z" fill="#111111" p-id="1994"></path></svg>
