<?xml version="1.0" standalone="no"?><!DOCTYPE svg PUBLIC "-//W3C//DTD SVG 1.1//EN" "http://www.w3.org/Graphics/SVG/1.1/DTD/svg11.dtd"><svg t="1732512400922" class="icon" viewBox="0 0 1024 1024" version="1.1" xmlns="http://www.w3.org/2000/svg" p-id="1250" xmlns:xlink="http://www.w3.org/1999/xlink" width="1024" height="1024"><path d="M230.75000027 160.43749973a70.31249973 70.31249973 0 0 0-70.31250054 70.31250054v175.78124973a70.31249973 70.31249973 0 0 0 70.31250054 70.31249973h175.78124973a70.31249973 70.31249973 0 0 0 70.31249973-70.31249973V230.75000027a70.31249973 70.31249973 0 0 0-70.31249973-70.31250054H230.75000027zM230.75000027 547.15625027a70.31249973 70.31249973 0 0 0-70.31250054 70.31249973v175.78124973a70.31249973 70.31249973 0 0 0 70.31250054 70.31250054h175.78124973a70.31249973 70.31249973 0 0 0 70.31249973-70.31250054v-175.78124973a70.31249973 70.31249973 0 0 0-70.31249973-70.31249973H230.75000027zM617.46875 160.43749973a70.31249973 70.31249973 0 0 0-70.31249973 70.31250054v175.78124973a70.31249973 70.31249973 0 0 0 70.31249973 70.31249973h175.78124973a70.31249973 70.31249973 0 0 0 70.31250054-70.31249973V230.75000027a70.31249973 70.31249973 0 0 0-70.31250054-70.31250054h-175.78124973zM617.46875 547.15625027a70.31249973 70.31249973 0 0 0-70.31249973 70.31249973v175.78124973a70.31249973 70.31249973 0 0 0 70.31249973 70.31250054h175.78124973a70.31249973 70.31249973 0 0 0 70.31250054-70.31250054v-175.78124973a70.31249973 70.31249973 0 0 0-70.31250054-70.31249973h-175.78124973z" fill="#111111" fill-opacity=".85" p-id="1251"></path></svg>