<?xml version="1.0" standalone="no"?><!DOCTYPE svg PUBLIC "-//W3C//DTD SVG 1.1//EN" "http://www.w3.org/Graphics/SVG/1.1/DTD/svg11.dtd"><svg t="1732276458761" class="icon" viewBox="0 0 1024 1024" version="1.1" xmlns="http://www.w3.org/2000/svg" p-id="1192" xmlns:xlink="http://www.w3.org/1999/xlink" width="1024" height="1024"><path d="M512.42500039 405.2999999a97.49999971 97.49999971 0 0 0-69.525 28.82500049 97.875 97.875 0 0 0-28.82500049 69.525c0 26.2749999 10.27500029 50.9000001 28.82500049 69.525a97.875 97.875 0 0 0 69.49999951 28.82499961 97.875 97.875 0 0 0 69.55000049-28.82499961 97.875 97.875 0 0 0 28.82499961-69.50000039 97.875 97.875 0 0 0-28.82499961-69.54999961 97.49999971 97.49999971 0 0 0-69.525-28.82500049z m362.3749998 207l-57.4999998-49.15000019c2.7500001-16.7000001 4.15000019-33.75 4.14999932-50.69999971 0-16.97500019-1.4000001-34.09999981-4.12499971-50.7250002l57.47500019-49.1249997a28.14999961 28.14999961 0 0 0 8.17499971-30.9250002l-0.7999998-2.3000001a388.9749999 388.9749999 0 0 0-69.95000039-120.9999999l-1.59999961-1.87499971a28.2499998 28.2499998 0 0 0-30.85000049-8.35000048l-71.34999961 25.40000039a306.9 306.9 0 0 0-87.54999961-50.52499981l-13.80000059-74.62500029a28.1750001 28.1750001 0 0 0-22.6749999-22.57499971l-2.3749998-0.45a396.07499971 396.07499971 0 0 0-139.57499971 0l-2.37500068 0.45a28.1750001 28.1750001 0 0 0-22.64999942 22.57499971l-13.8999999 74.9750001a310.6749999 310.6749999 0 0 0-86.92500059 50.3499999L244.7 248.14999971a28.125 28.125 0 0 0-30.84999961 8.35000048l-1.575 1.8500001a391.92500039 391.92500039 0 0 0-69.95000039 121.02499951l-0.79999981 2.27500049c-3.94999981 11.00000039-0.69999961 23.2999998 8.17499971 30.94999981l58.17499981 49.65000029c-2.72499961 16.52500019-4.05 33.40000019-4.05 50.09999941 0 16.875 1.32500039 33.75 4.05 50.1000003l-57.99999991 49.65000029a28.14999961 28.14999961 0 0 0-8.1749997 30.9499998l0.7999998 2.27499961a389.925 389.925 0 0 0 69.95000039 121.02500039l1.575 1.8500001a28.2499998 28.2499998 0 0 0 30.84999961 8.34999961l71.89999981-25.57500029a304.35000029 304.35000029 0 0 0 86.92500058 50.37500039l13.89999991 74.94999961a28.1750001 28.1750001 0 0 0 22.64999941 22.60000019l2.37500068 0.45c46.1750001 8.30000039 93.4250001 8.30000039 139.57499971 0l2.37499981-0.45a28.19999971 28.19999971 0 0 0 22.6749999-22.60000019l13.80000058-74.59999981a308.94999961 308.94999961 0 0 0 87.54999961-50.54999941l71.35000049 25.39999951a28.10000039 28.10000039 0 0 0 30.84999961-8.34999961l1.59999961-1.8500001a391.92500039 391.92500039 0 0 0 69.95000039-120.9999999l0.79999981-2.3000001a28.37499961 28.37499961 0 0 0-8.34999961-30.75000029z m-362.3749998 45.87500039a154.50000029 154.50000029 0 1 1 0-309.02500019 154.50000029 154.50000029 0 1 1 0 308.9999997z" fill="#111111" p-id="1193"></path></svg>
