<?xml version="1.0" standalone="no"?><!DOCTYPE svg PUBLIC "-//W3C//DTD SVG 1.1//EN" "http://www.w3.org/Graphics/SVG/1.1/DTD/svg11.dtd"><svg t="1732276462605" class="icon" viewBox="0 0 1024 1024" version="1.1" xmlns="http://www.w3.org/2000/svg" p-id="1353" xmlns:xlink="http://www.w3.org/1999/xlink" width="1024" height="1024"><path d="M861.45524089 638.98209636v148.31542968a74.15771484 74.15771484 0 0 1-74.15771484 74.15771485h-148.31542969v-74.15771485a74.15771484 74.15771484 0 0 0-74.15771485-74.15771484 74.15771484 74.15771484 0 0 0-74.15771484 74.15771485v74.15771484H342.35123698a74.15771484 74.15771484 0 0 1-74.15771484-74.15771485v-148.31542968H194.03580729a74.15771484 74.15771484 0 0 1-74.15771484-74.15771485 74.15771484 74.15771484 0 0 1 74.15771485-74.15771484h74.15771484V342.35123698c0-40.78674317 33.37097168-74.15771484 74.15771484-74.15771484h148.31542969V194.03580729a74.15771484 74.15771484 0 0 1 74.15771484-74.15771484 74.15771484 74.15771484 0 0 1 74.15771485 74.15771485v74.15771484h148.31542968a74.15771484 74.15771484 0 0 1 74.15771485 74.15771484v148.31542969h-74.15771485a74.15771484 74.15771484 0 0 0-74.15771484 74.15771484 74.15771484 74.15771484 0 0 0 74.15771485 74.15771485h74.15771484z" fill="#111111" p-id="1354"></path></svg>