<?xml version="1.0" standalone="no"?><!DOCTYPE svg PUBLIC "-//W3C//DTD SVG 1.1//EN" "http://www.w3.org/Graphics/SVG/1.1/DTD/svg11.dtd"><svg t="1732276469592" class="icon" viewBox="0 0 1024 1024" version="1.1" xmlns="http://www.w3.org/2000/svg" p-id="1671" xmlns:xlink="http://www.w3.org/1999/xlink" width="1024" height="1024"><path d="M821.375 188.5625H554.1875c-7.734375 0-14.0625 6.328125-14.0625 14.0625v267.1875c0 7.734375 6.328125 14.0625 14.0625 14.0625h267.1875c7.734375 0 14.0625-6.328125 14.0625-14.0625V202.625c0-7.734375-6.328125-14.0625-14.0625-14.0625zM821.375 540.125H554.1875c-7.734375 0-14.0625 6.328125-14.0625 14.0625v267.1875c0 7.734375 6.328125 14.0625 14.0625 14.0625h267.1875c7.734375 0 14.0625-6.328125 14.0625-14.0625V554.1875c0-7.734375-6.328125-14.0625-14.0625-14.0625zM469.8125 188.5625H202.625c-7.734375 0-14.0625 6.328125-14.0625 14.0625v267.1875c0 7.734375 6.328125 14.0625 14.0625 14.0625h267.1875c7.734375 0 14.0625-6.328125 14.0625-14.0625V202.625c0-7.734375-6.328125-14.0625-14.0625-14.0625zM469.8125 540.125H202.625c-7.734375 0-14.0625 6.328125-14.0625 14.0625v267.1875c0 7.734375 6.328125 14.0625 14.0625 14.0625h267.1875c7.734375 0 14.0625-6.328125 14.0625-14.0625V554.1875c0-7.734375-6.328125-14.0625-14.0625-14.0625z" fill="#111111" p-id="1672"></path></svg>