<?xml version="1.0" standalone="no"?><!DOCTYPE svg PUBLIC "-//W3C//DTD SVG 1.1//EN" "http://www.w3.org/Graphics/SVG/1.1/DTD/svg11.dtd"><svg t="1731997520305" class="icon" viewBox="0 0 1024 1024" version="1.1" xmlns="http://www.w3.org/2000/svg" p-id="2442" xmlns:xlink="http://www.w3.org/1999/xlink" width="1024" height="1024"><path d="M186.9999998 112.0000001a24.99999961 24.99999961 0 0 1 25.00000049 24.99999961L211.9500002 212.00000029H787.0000001A74.99999971 74.99999971 0 0 1 861.9999998 287V761.99999961h75.00000059a24.99999961 24.99999961 0 1 1 0 50.0000001H861.9999998v75.00000058a24.99999961 24.99999961 0 1 1-50.00000009 0V811.99999971H236.9999999A74.99999971 74.99999971 0 0 1 162.0000002 737l-0.0500001-474.8000001H86.99999961a24.99999961 24.99999961 0 0 1 0-50.0000001h74.95000049L162.0000002 136.99999971a24.99999961 24.99999961 0 0 1 24.99999961-24.99999961z" fill="#A7CBFF" p-id="2443"></path><path d="M829.3500002 610.1l32.59999951 32.10000029L861.9999998 761.99999961h75.00000059a24.99999961 24.99999961 0 1 1 0 50.0000001H861.9999998v75.00000058a24.99999961 24.99999961 0 1 1-50.00000009 0V811.99999971h-147.79999952l-59.00000009-72.9500001 41.64999961-35.55 21.85000048-18.45 45.64999952-38.1999999 48.30000029-39.89999971a49.8999999 49.8999999 0 0 1 66.70000019 3.15z" fill="#619FF8" p-id="2444"></path><path d="M437.00000029 474.89999961L719.3999999 811.99999971H236.9999999A74.99999971 74.99999971 0 0 1 162.0000002 737v-94.34999971l40.74999961-35.30000039 43.50000058-37.14999961 46.19999971-39.0999999 74.40000029-62.30000039a49.8499998 49.8499998 0 0 1 70.1499999 6.09999961z" fill="#7AAEFF" p-id="2445"></path><path d="M724.5000002 374.50000039m-62.49999991 0a62.4999999 62.4999999 0 1 0 124.99999981 0 62.4999999 62.4999999 0 1 0-124.99999981 0Z" fill="#FFFFFF" p-id="2446"></path></svg>