<?xml version="1.0" standalone="no"?><!DOCTYPE svg PUBLIC "-//W3C//DTD SVG 1.1//EN" "http://www.w3.org/Graphics/SVG/1.1/DTD/svg11.dtd"><svg t="1761105821565" class="icon" viewBox="0 0 1024 1024" version="1.1" xmlns="http://www.w3.org/2000/svg" p-id="2271" xmlns:xlink="http://www.w3.org/1999/xlink" width="200" height="200"><path d="M391.56787109 408.17919922a19.87426758 19.87426758 0 1 0 19.72595216 19.87426759A19.87426758 19.87426758 0 0 0 391.56787109 408.17919922z" fill="#EE6B40" p-id="2272"></path><path d="M512 141.21142578a370.78857422 370.78857422 0 1 0 370.78857422 370.78857422A370.78857422 370.78857422 0 0 0 512 141.21142578z m124.43664551 459.77783203a46.4227295 46.4227295 0 0 1-46.27441406 46.4227295H391.56787109A46.4227295 46.4227295 0 0 1 345.1451416 600.98925781V428.64672852a46.4227295 46.4227295 0 0 1 46.42272949-46.4227295h198.59436036a46.4227295 46.4227295 0 0 1 46.27441405 46.4227295z m79.49707031-33.9642334A18.53942873 18.53942873 0 0 1 689.97851563 583.9329834l-29.66308594-11.71691895a18.53942873 18.53942873 0 0 1-11.56860352-17.20458984v-94.03198242A18.53942873 18.53942873 0 0 1 660.31542969 443.77490234l29.66308593-11.71691895a18.53942873 18.53942873 0 0 1 25.36193849 17.20458986z" fill="#EE6B40" p-id="2273"></path></svg>