<?xml version="1.0" standalone="no"?><!DOCTYPE svg PUBLIC "-//W3C//DTD SVG 1.1//EN" "http://www.w3.org/Graphics/SVG/1.1/DTD/svg11.dtd"><svg t="1732440132260" class="icon" viewBox="0 0 1038 1024" version="1.1" xmlns="http://www.w3.org/2000/svg" p-id="1220" xmlns:xlink="http://www.w3.org/1999/xlink" width="1038" height="1024"><path d="M517.65011183 350.45455512c-89.12852136 0-167.11597698 77.98745561-167.11597699 167.11597776s77.98745561 167.11597698 167.11597699 167.11597698 167.11597698-77.98745561 167.11597698-167.11597698-77.98745561-167.11597698-167.11597698-167.11597776z m0 222.82130342c-27.85266283 0-55.70532566-27.85266283-55.70532566-55.70532566s27.85266283-55.70532566 55.70532566-55.70532566 55.70532566 27.85266283 55.70532566 55.70532566-27.85266283 55.70532566-55.70532566 55.70532565zM762.75354443 562.13479279c-11.14106498 50.13479279-33.42319571 94.69905348-66.84639064 133.69278204-38.99372782 38.99372782-83.5579885 61.27585853-133.69278127 72.41692352v139.26331415c83.5579885-11.14106498 167.11597698-44.56426069 233.96236761-111.41065132 66.84639064-66.84639064 100.26958634-144.83384702 111.41065132-228.39183552l-144.83384702-5.57053288zM762.75354443 461.86520721c-11.14106498-50.13479279-33.42319571-94.69905348-66.84639064-133.69278204-38.99372782-33.42319571-89.12852136-55.70532566-139.26331416-66.84639065V122.06272038c83.5579885 11.14106498 167.11597698 44.56426069 233.96236762 111.41065132 66.84639064 66.84639064 100.26958634 144.83384702 111.41065209 228.39183551h-139.26331491zM261.40561347 562.13479279c11.14106498 50.13479279 33.42319571 94.69905348 66.84639064 133.69278204 38.99372782 38.99372782 83.5579885 61.27585853 133.69278206 72.41692352v139.26331415c-83.5579885-11.14106498-167.11597698-44.56426069-233.96236839-111.41065132C161.13602713 729.25077055 127.71283143 651.26331416 116.57176646 567.70532566l144.83384702-5.57053288zM261.40561347 461.86520721c11.14106498-50.13479279 33.42319571-94.69905348 66.84639064-133.69278204 38.99372782-38.99372782 83.5579885-61.27585853 133.69278206-72.41692352V116.4921875C378.38679768 133.20378536 294.82880841 166.62698029 233.55295065 233.4733717 166.70656002 300.31976233 133.2833643 378.30721796 122.14229933 461.86520721h139.26331414z" fill="#111111" p-id="1221"></path></svg>