<?xml version="1.0" standalone="no"?><!DOCTYPE svg PUBLIC "-//W3C//DTD SVG 1.1//EN" "http://www.w3.org/Graphics/SVG/1.1/DTD/svg11.dtd"><svg t="1732440136113" class="icon" viewBox="0 0 1024 1024" version="1.1" xmlns="http://www.w3.org/2000/svg" p-id="1377" xmlns:xlink="http://www.w3.org/1999/xlink" width="1024" height="1024"><path d="M828.40625 142.859375a52.734375 52.734375 0 0 1 52.734375 52.734375v632.8125a52.734375 52.734375 0 0 1-52.734375 52.734375H195.59375a52.734375 52.734375 0 0 1-52.734375-52.734375V195.59375a52.734375 52.734375 0 0 1 52.734375-52.734375h632.8125zM559.77734375 278.75585937a52.734375 52.734375 0 0 0-95.5546875 1e-8l-184.5703125 395.50781249a52.734375 52.734375 0 0 0 25.47070313 70.13671876l5.74804687 2.21484375a52.734375 52.734375 0 0 0 64.3359375-27.73828125l22.67578125-48.67382813h228.234375l22.67578125 48.67382813a52.734375 52.734375 0 1 0 95.5546875-44.61328125zM512 425.77929687L576.86328125 564.734375H447.13671875L512 425.77929687z" fill="#111111" p-id="1378"></path></svg>